<svg version="1.1" xmlns="http://www.w3.org/2000/svg" xmlns:xlink="http://www.w3.org/1999/xlink" width="56.54316" height="50.21842" viewBox="0,0,56.54316,50.21842"><g transform="translate(-211.07158,-154.10061)"><g data-paper-data="{&quot;isPaintingLayer&quot;:true}" fill-rule="nonzero" stroke-linejoin="miter" stroke-miterlimit="10" stroke-dasharray="" stroke-dashoffset="0" style="mix-blend-mode: normal"><path d="M259.9104,178.6717c2.2644,1.4884 2.3059,1.3256 2.1891,2.3577c-0.1287,1.2628 -0.3499,1.2299 -2.7115,2.5349c-9.4441,5.2199 -18.8236,10.7112 -28.7462,14.9506c-2.4802,1.061 -4.7696,1.1538 -6.8846,0.2712c-1.3064,-0.5981 -1.5804,-2.5467 -1.7039,-3.9851c-0.4031,-4.7399 -0.0737,-9.6814 0.1666,-14.5773c0.2628,-5.2409 -0.065,-10.6401 1.3474,-15.8469c0.4749,-1.751 2.3201,-3.1855 4.0077,-3.6864c1.512,-0.447 2.2957,-0.4333 4.6554,0.8696c9.4368,5.2141 18.6249,11.1601 27.68,17.1117z" fill="#ff9400" stroke="#ffffff" stroke-width="9.33012" stroke-linecap="round"/><path d="M211.07158,204.31904v-50.21842h56.54316v50.21842z" fill="none" stroke="none" stroke-width="0" stroke-linecap="butt"/></g></g></svg>