<svg version="1.1" xmlns="http://www.w3.org/2000/svg" xmlns:xlink="http://www.w3.org/1999/xlink" width="65.375" height="55.375" viewBox="0,0,65.375,55.375"><g transform="translate(-207.3125,-152.3125)"><g data-paper-data="{&quot;isPaintingLayer&quot;:true}" fill-rule="nonzero" stroke-linejoin="miter" stroke-miterlimit="10" stroke-dasharray="" stroke-dashoffset="0" style="mix-blend-mode: normal"><path d="M251.8741,182.5675c1.3529,0.5538 1.9066,0.6979 1.8969,1.5039c-0.014,1.001 -0.5125,1.6999 -1.9047,2.2961c-5.5709,2.3845 -11.3943,4.0086 -17.1122,5.9148c-1.433,0.4751 -1.1701,0.5126 -1.801,0.4963c-0.6088,-0.1102 -1.2913,-0.3617 -1.6983,-0.8535c-1.5382,-1.8572 -2.6737,-4.0255 -3.8874,-6.108c-0.304,-0.5216 -0.612,-1.0063 -0.4968,-1.551c0.0675,-0.7699 0.5659,-1.4359 1.0043,-2.098c1.1235,-1.6997 2.225,-3.4034 3.6101,-4.9425c0.4761,-0.5291 1.1032,-1.0228 1.8024,-1.1463c0.7033,-0.1226 0.6562,-0.1157 1.9993,0.3541c5.59,1.9505 11.174,3.917 16.5874,6.1341z" fill="#ff9400" stroke="#ffffff" stroke-width="4" stroke-linecap="round"/><path d="M207.3125,207.6875v-55.375h65.375v55.375z" fill="none" stroke="none" stroke-width="0" stroke-linecap="butt"/></g></g></svg>