<svg xmlns="http://www.w3.org/2000/svg" xmlns:xlink="http://www.w3.org/1999/xlink" version="1.1" width="42.60341000556946" height="24.381221055984497" viewBox="-0.3885542154312134 0.16144579648971558 42.60341000556946 24.381221055984497">
  <!-- Exported by Scratch - http://scratch.mit.edu/ -->
  <path id="ID0.41664973367005587" fill="#FFFFFF" stroke="none" d="M 8.575 5.3 C 10.872 5.3 12.953 6.233 14.46 7.74 C 15.967 9.247 16.9 11.328 16.9 13.625 C 16.9 15.922 15.967 18.003 14.46 19.51 C 12.953 21.017 10.872 21.95 8.575 21.95 C 6.278 21.95 4.197 21.017 2.69 19.51 C 1.183 18.003 0.25 15.922 0.25 13.625 C 0.25 11.328 1.183 9.247 2.69 7.74 C 4.197 6.233 6.278 5.3 8.575 5.3 Z " stroke-width="1"/>
  <path id="ID0.41664973367005587" fill="#FFFFFF" stroke="none" d="M 16.075 6.95 C 18.372 6.95 20.453 7.883 21.96 9.39 C 23.467 10.897 24.4 12.978 24.4 15.275 C 24.4 17.572 23.467 19.653 21.96 21.16 C 20.453 22.667 18.372 23.6 16.075 23.6 C 13.778 23.6 11.697 22.667 10.19 21.16 C 8.683 19.653 7.75 17.572 7.75 15.275 C 7.75 12.978 8.683 10.897 10.19 9.39 C 11.697 7.883 13.778 6.95 16.075 6.95 Z " stroke-width="1"/>
  <path id="ID0.41664973367005587" fill="#FFFFFF" stroke="none" d="M 19.075 0.8 C 21.372 0.8 23.453 1.733 24.96 3.24 C 26.467 4.747 27.4 6.828 27.4 9.125 C 27.4 11.422 26.467 13.503 24.96 15.01 C 23.453 16.517 21.372 17.45 19.075 17.45 C 16.778 17.45 14.697 16.517 13.19 15.01 C 11.683 13.503 10.75 11.422 10.75 9.125 C 10.75 6.828 11.683 4.747 13.19 3.24 C 14.697 1.733 16.778 0.8 19.075 0.8 Z " stroke-width="1"/>
  <path id="ID0.41664973367005587" fill="#FFFFFF" stroke="#FFFFFF" stroke-width="1.2771084308624268" d="M 29.613 5.5187 C 31.0797 5.5187 32.4085 6.1144 33.3708 7.0767 C 34.3331 8.039 34.9289 9.3679 34.9289 10.8346 C 34.9289 12.3014 34.3331 13.6302 33.3708 14.5925 C 32.4085 15.5548 31.0797 16.1506 29.613 16.1506 C 28.1462 16.1506 26.8174 15.5548 25.8551 14.5925 C 24.8928 13.6302 24.297 12.3014 24.297 10.8346 C 24.297 9.3679 24.8928 8.039 25.8551 7.0767 C 26.8174 6.1144 28.1462 5.5187 29.613 5.5187 Z "/>
  <path id="ID0.41664973367005587" fill="#FFFFFF" stroke="none" d="M 35.7338 8.1642 C 37.3459 8.1642 38.8063 8.8189 39.8639 9.8766 C 40.9216 10.9342 41.5763 12.3946 41.5763 14.0067 C 41.5763 15.6187 40.9216 17.0792 39.8639 18.1368 C 38.8063 19.1945 37.3459 19.8492 35.7338 19.8492 C 34.1218 19.8492 32.6613 19.1945 31.6037 18.1368 C 30.546 17.0792 29.8913 15.6187 29.8913 14.0067 C 29.8913 12.3946 30.546 10.9342 31.6037 9.8766 C 32.6613 8.8189 34.1218 8.1642 35.7338 8.1642 Z " stroke-width="0.7018072009086609"/>
  <path id="ID0.21072516916319728" fill="#FFFFFF" stroke="none" stroke-linecap="round" d="M 21.475 14.5 C 27.614 14.784 33.648 11.658 39.65 12.5 C 41.298 12.767 41.489 15.832 40.8 17.3 C 39.71 19.622 37.612 21.644 35.136 22.523 C 30.827 24.051 26.807 23.9 21.475 23.9 C 16.143 23.9 12.174 23.817 7.814 22.523 C 5.499 21.836 3.212 20.09 2.15 17.9 C 1.149 15.831 -0.035 11.247 2.3 10.8 C 8.689 9.712 14.979 14.2 21.475 14.5 Z " stroke-width="1"/>
</svg>