<svg version="1.1" xmlns="http://www.w3.org/2000/svg" xmlns:xlink="http://www.w3.org/1999/xlink" width="60.0518" height="58.3" viewBox="0,0,60.0518,58.3"><g transform="translate(-211.7433,-151)"><g data-paper-data="{&quot;isPaintingLayer&quot;:true}" fill-rule="nonzero" stroke-miterlimit="10" stroke-dasharray="" stroke-dashoffset="0" style="mix-blend-mode: normal"><path d="M241.7692,151c8.284,0 15.7907,3.266 21.2257,8.543c5.436,5.277 8.8002,12.565 8.8002,20.607c0,8.042 -3.3642,15.33 -8.8002,20.607c-5.435,5.277 -12.9417,8.543 -21.2257,8.543c-8.284,0 -15.7907,-3.266 -21.2257,-8.543c-5.436,-5.277 -8.8002,-12.565 -8.8002,-20.607c0,-8.042 3.3642,-15.33 8.8002,-20.607c5.435,-5.277 12.9417,-8.543 21.2257,-8.543z" fill="#ffffff" stroke="none" stroke-width="0.98174" stroke-linecap="butt" stroke-linejoin="miter"/><g fill="none" stroke="#ff9400" stroke-linecap="round" stroke-linejoin="round"><path d="M259.7691,180.1606h-34.361z" stroke-width="7.5143"/><path d="M239.32,160.9379l-17.6845,18.7652z" stroke-width="7.34177"/><path d="M221.58,179.7879l17.6845,18.7652z" stroke-width="7.34177"/></g></g></g></svg>